<?xml version="1.0" encoding="utf-8"?>
<!-- Generator: Adobe Illustrator 27.7.0, SVG Export Plug-In . SVG Version: 6.00 Build 0)  -->
<svg version="1.1" id="Calque_1" xmlns="http://www.w3.org/2000/svg" xmlns:xlink="http://www.w3.org/1999/xlink" x="0px" y="0px"
	 viewBox="0 0 301.12 167.52" style="enable-background:new 0 0 301.12 167.52;" xml:space="preserve">
<style type="text/css">
	.st0{fill:#39B54A;}
	.st1{fill:#FFFFFF;}
</style>
<g>
	<g>
		<path d="M40.62,106.71c-1.71,0-3.63-0.34-5.75-1.03c-2.12-0.68-4.31-1.5-6.55-2.46c-2.24-0.96-4.42-1.87-6.55-2.73
			c-1.16,1.23-2.4,2.18-3.74,2.87c-1.34,0.68-2.77,1.02-4.3,1.02c-1.62,0-3.01-0.35-4.19-1.06c-1.18-0.71-2.08-1.56-2.7-2.56
			S5.9,98.86,5.9,98.04c0-0.91,0.42-1.71,1.25-2.39c0.83-0.68,2.31-1.02,4.43-1.02c1.25,0,2.62,0.13,4.12,0.38
			c1.5,0.25,3.04,0.58,4.61,0.99c1.06-1.82,2.04-3.96,2.94-6.42c0.9-2.46,1.79-5.04,2.67-7.75c0.88-2.71,1.75-5.36,2.63-7.95
			c-2.31-0.77-4.09-1.85-5.33-3.24c-1.25-1.39-1.87-2.79-1.87-4.2c0-0.91,0.23-1.81,0.69-2.7c0.46-0.89,1.13-1.64,2.01-2.25
			c0.88-0.61,1.92-0.92,3.12-0.92c-0.6,0.73-0.98,1.55-1.14,2.46c-0.16,0.91-0.24,1.64-0.24,2.18c0,1.5,0.35,2.78,1.04,3.82
			c0.69,1.05,1.55,1.87,2.56,2.46c0.88-2.59,1.81-5.09,2.81-7.48c0.99-2.39,2.1-4.51,3.33-6.35c1.22-1.84,2.59-3.31,4.09-4.4
			c1.5-1.09,3.2-1.64,5.09-1.64c1.06,0,2.18,0.22,3.36,0.65c1.18,0.43,2.19,1.17,3.05,2.22c0.85,1.05,1.28,2.55,1.28,4.51
			c0,1.55-0.34,3.21-1,4.98c-0.67,1.77-1.72,3.47-3.15,5.09c-1.43,1.62-3.27,2.96-5.51,4.03c-2.24,1.07-4.95,1.65-8.14,1.74
			c-0.09,0-0.2,0-0.31,0c-0.12,0-0.22,0-0.31,0c-0.88,2.64-1.8,5.3-2.77,7.99c-0.97,2.69-2.01,5.26-3.12,7.71
			c-1.11,2.46-2.31,4.64-3.6,6.55c1.8,0.5,3.8,1.07,5.99,1.71c2.19,0.64,4.39,1.17,6.58,1.6c2.19,0.43,4.12,0.65,5.79,0.65
			c1.11,0,2.14-0.13,3.08-0.38c0.95-0.25,1.95-0.62,3.01-1.13c-0.92,2.55-2.07,4.38-3.43,5.5
			C44.14,106.15,42.51,106.71,40.62,106.71z M13.04,101.86c1.2,0,2.17-0.26,2.91-0.79c0.74-0.52,1.48-1.17,2.22-1.95
			c-1.43-0.5-2.77-0.92-4.02-1.26c-1.25-0.34-2.33-0.51-3.26-0.51c-0.88,0-1.51,0.16-1.91,0.48C8.59,98.16,8.4,98.54,8.4,99
			c0,0.73,0.46,1.39,1.39,1.98C10.71,101.57,11.79,101.86,13.04,101.86z M34.73,72.58c2.03-0.14,3.83-0.77,5.4-1.91
			c1.57-1.14,2.91-2.5,4.02-4.1c1.11-1.59,1.95-3.22,2.53-4.88c0.58-1.66,0.87-3.11,0.87-4.34c0-1.18-0.23-1.99-0.69-2.42
			c-0.46-0.43-0.99-0.65-1.59-0.65c-1.34,0-2.61,0.84-3.81,2.53c-1.2,1.68-2.35,3.9-3.43,6.66C36.93,66.22,35.83,69.26,34.73,72.58z
			"/>
		<path d="M60.64,103.78c-2.96,0-5.23-0.79-6.83-2.36c-1.59-1.57-2.39-3.54-2.39-5.91c0-2,0.52-4.13,1.56-6.38
			c1.04-2.25,2.44-4.37,4.19-6.35c1.75-1.98,3.69-3.58,5.82-4.81c2.12-1.23,4.25-1.84,6.37-1.84c1.2,0,2.34,0.31,3.43,0.92
			c1.08,0.61,1.63,1.83,1.63,3.65c0,1.73-0.51,3.35-1.52,4.85c-1.02,1.5-2.38,2.85-4.09,4.03c-1.71,1.18-3.59,2.15-5.65,2.9
			c-2.06,0.75-4.12,1.24-6.2,1.47c-0.05,0.18-0.08,0.38-0.1,0.58c-0.02,0.2-0.03,0.54-0.03,0.99c0,0.23,0.03,0.63,0.1,1.19
			c0.07,0.57,0.27,1.17,0.59,1.81c0.32,0.64,0.85,1.18,1.59,1.64c0.74,0.46,1.75,0.68,3.05,0.68c1.94,0,3.89-0.53,5.85-1.6
			c1.96-1.07,3.81-2.49,5.54-4.27c1.73-1.77,3.18-3.75,4.33-5.94l1.39,1.09c-1.25,2.73-2.85,5.12-4.82,7.17
			c-1.96,2.05-4.13,3.64-6.51,4.78C65.57,103.21,63.13,103.78,60.64,103.78z M57.73,91.42c1.2-0.14,2.54-0.55,4.02-1.23
			c1.48-0.68,2.9-1.55,4.26-2.59c1.36-1.05,2.48-2.2,3.36-3.45c0.88-1.25,1.32-2.51,1.32-3.79c0-0.5-0.09-0.84-0.28-1.02
			c-0.19-0.18-0.49-0.27-0.9-0.27c-1.06,0-2.17,0.38-3.33,1.13c-1.16,0.75-2.29,1.73-3.4,2.94c-1.11,1.21-2.1,2.54-2.98,3.99
			C58.93,88.58,58.24,90.01,57.73,91.42z"/>
		<path d="M110.39,106.71c-2.68,0-5.23-0.46-7.66-1.37c-2.43-0.91-4.4-2.3-5.92-4.17c-1.52-1.87-2.29-4.19-2.29-6.96
			c0-2.46,0.55-4.38,1.66-5.77c1.11-1.39,2.49-2.36,4.16-2.9c1.66-0.55,3.28-0.82,4.85-0.82c-1.48,1.55-2.6,3.14-3.36,4.78
			c-0.76,1.64-1.14,3.21-1.14,4.71c0,1.55,0.4,2.99,1.21,4.33c0.81,1.34,2.02,2.43,3.64,3.28c1.62,0.84,3.63,1.26,6.03,1.26
			c2.08,0,4.1-0.34,6.06-1.02c1.96-0.68,3.58-1.71,4.85-3.07c1.27-1.37,1.91-3.07,1.91-5.12c0-1.87-0.54-3.47-1.63-4.81
			c-1.09-1.34-2.48-2.55-4.19-3.62c-1.71-1.07-3.51-2.09-5.4-3.07c-1.89-0.98-3.7-2.04-5.4-3.17c-1.71-1.14-3.11-2.46-4.19-3.96
			c-1.09-1.5-1.63-3.3-1.63-5.39c0-1.87,0.47-3.86,1.42-5.97c0.95-2.12,2.3-4.11,4.05-5.97c1.75-1.87,3.88-3.38,6.37-4.54
			c2.49-1.16,5.27-1.74,8.31-1.74c3.19,0,5.43,0.66,6.72,1.98c1.29,1.32,1.94,3.05,1.94,5.19c0,1.68-0.3,3.48-0.9,5.39
			c-0.6,1.91-1.33,3.73-2.18,5.46c-0.86,1.73-1.67,3.21-2.46,4.44c-1.02-0.23-1.78-0.62-2.29-1.19c-0.51-0.57-0.76-1.33-0.76-2.29
			c0-0.96,0.2-2.02,0.59-3.21c0.39-1.18,0.85-2.41,1.39-3.69c0.53-1.27,0.99-2.51,1.39-3.72c0.39-1.21,0.59-2.26,0.59-3.17
			c0-0.82-0.24-1.46-0.73-1.91c-0.48-0.45-1.47-0.68-2.94-0.68c-2.22,0-4.25,0.48-6.1,1.43c-1.85,0.96-3.45,2.16-4.82,3.62
			c-1.36,1.46-2.41,2.99-3.15,4.61c-0.74,1.62-1.11,3.08-1.11,4.4c0,1.64,0.53,3.04,1.59,4.2c1.06,1.16,2.44,2.22,4.12,3.17
			c1.69,0.96,3.46,1.91,5.34,2.87c1.87,0.96,3.65,2.03,5.33,3.21c1.69,1.18,3.06,2.59,4.12,4.23c1.06,1.64,1.59,3.64,1.59,6.01
			c0,2.37-0.54,4.46-1.63,6.28c-1.09,1.82-2.55,3.36-4.4,4.61c-1.85,1.25-3.89,2.21-6.13,2.87
			C114.97,106.38,112.7,106.71,110.39,106.71z"/>
		<path d="M141.56,103.78c-2.96,0-5.23-0.79-6.83-2.36c-1.59-1.57-2.39-3.54-2.39-5.91c0-2,0.52-4.13,1.56-6.38
			c1.04-2.25,2.44-4.37,4.19-6.35c1.75-1.98,3.69-3.58,5.82-4.81c2.12-1.23,4.25-1.84,6.37-1.84c1.2,0,2.34,0.31,3.43,0.92
			c1.08,0.61,1.63,1.83,1.63,3.65c0,1.73-0.51,3.35-1.52,4.85c-1.02,1.5-2.38,2.85-4.09,4.03c-1.71,1.18-3.59,2.15-5.65,2.9
			c-2.06,0.75-4.12,1.24-6.2,1.47c-0.05,0.18-0.08,0.38-0.1,0.58c-0.02,0.2-0.03,0.54-0.03,0.99c0,0.23,0.03,0.63,0.1,1.19
			c0.07,0.57,0.27,1.17,0.59,1.81c0.32,0.64,0.85,1.18,1.59,1.64c0.74,0.46,1.75,0.68,3.05,0.68c1.94,0,3.89-0.53,5.85-1.6
			c1.96-1.07,3.81-2.49,5.54-4.27c1.73-1.77,3.18-3.75,4.33-5.94l1.39,1.09c-1.25,2.73-2.85,5.12-4.82,7.17
			c-1.96,2.05-4.13,3.64-6.51,4.78C146.49,103.21,144.06,103.78,141.56,103.78z M138.65,91.42c1.2-0.14,2.54-0.55,4.02-1.23
			c1.48-0.68,2.9-1.55,4.26-2.59c1.36-1.05,2.48-2.2,3.36-3.45c0.88-1.25,1.32-2.51,1.32-3.79c0-0.5-0.09-0.84-0.28-1.02
			c-0.19-0.18-0.49-0.27-0.9-0.27c-1.06,0-2.17,0.38-3.33,1.13c-1.16,0.75-2.29,1.73-3.4,2.94c-1.11,1.21-2.1,2.54-2.98,3.99
			C139.86,88.58,139.16,90.01,138.65,91.42z"/>
		<path d="M193.39,102.89c-1.8,0-3.14-0.52-4.02-1.57c-0.88-1.05-1.32-2.3-1.32-3.75c0-1.05,0.16-2.09,0.49-3.14
			c0.32-1.05,0.65-2.08,0.97-3.11c0.32-1.02,0.49-1.95,0.49-2.77c0-0.77-0.15-1.31-0.45-1.6c-0.3-0.3-0.68-0.44-1.14-0.44
			c-1.06,0-2.3,0.8-3.71,2.39c-1.41,1.59-3.15,3.92-5.23,6.96c-0.74,1.09-1.43,2.24-2.08,3.45c-0.65,1.21-1.22,2.22-1.73,3.04
			c-0.42,0-0.96-0.07-1.63-0.21c-0.67-0.14-1.26-0.33-1.77-0.58c-0.51-0.25-0.76-0.58-0.76-0.99c0-0.41,0.23-1.21,0.69-2.39
			c0.46-1.18,0.99-2.56,1.59-4.13c0.6-1.57,1.13-3.12,1.59-4.64c0.46-1.52,0.69-2.81,0.69-3.86c0-0.64-0.12-1.14-0.35-1.5
			c-0.23-0.36-0.6-0.55-1.11-0.55c-0.97,0-2.14,0.57-3.5,1.71c-1.36,1.14-2.8,2.63-4.3,4.47c-1.5,1.84-2.91,3.89-4.23,6.14
			c-1.32,2.25-2.39,4.52-3.22,6.79c-0.51,0-1.13-0.1-1.87-0.31c-0.74-0.21-1.39-0.46-1.94-0.75c-0.55-0.3-0.83-0.56-0.83-0.79
			c0-0.04,0.16-0.69,0.49-1.95c0.32-1.25,0.72-2.81,1.18-4.68c0.46-1.87,0.95-3.78,1.46-5.73c0.51-1.96,0.95-3.66,1.32-5.12
			c0.14-0.5,0.65-0.94,1.52-1.33c0.88-0.39,1.64-0.58,2.29-0.58c0.65,0,1.2,0.2,1.66,0.61c0.46,0.41,0.69,0.96,0.69,1.64
			c0,0.46-0.09,1.12-0.28,1.98c-0.19,0.87-0.42,1.84-0.69,2.94c0.97-1.27,2-2.54,3.08-3.79c1.08-1.25,2.22-2.38,3.4-3.38
			c1.18-1,2.36-1.8,3.53-2.39c1.18-0.59,2.34-0.89,3.5-0.89c1.71,0,2.86,0.6,3.46,1.81c0.6,1.21,0.9,2.52,0.9,3.93
			c0,0.59-0.05,1.17-0.14,1.74c-0.09,0.57-0.22,1.14-0.38,1.71c-0.16,0.57-0.38,1.24-0.66,2.01c0.88-1.27,1.84-2.45,2.88-3.52
			c1.04-1.07,2.16-1.92,3.36-2.56c1.2-0.64,2.47-0.96,3.81-0.96c1.8,0,3.05,0.54,3.74,1.6c0.69,1.07,1.04,2.24,1.04,3.52
			c0,1.18-0.2,2.42-0.59,3.72c-0.39,1.3-0.79,2.53-1.18,3.69c-0.39,1.16-0.59,2.15-0.59,2.97c0,0.46,0.11,0.88,0.35,1.26
			c0.23,0.39,0.69,0.58,1.39,0.58c1.25,0,2.45-0.57,3.6-1.71c1.15-1.14,2.23-2.54,3.22-4.2c0.99-1.66,1.84-3.24,2.53-4.74l1.18,1.43
			c-0.74,1.87-1.7,3.77-2.88,5.7c-1.18,1.94-2.55,3.55-4.12,4.85C197.22,102.24,195.42,102.89,193.39,102.89z"/>
		<path d="M210.92,103.78c-2.96,0-5.23-0.79-6.83-2.36c-1.59-1.57-2.39-3.54-2.39-5.91c0-2,0.52-4.13,1.56-6.38
			c1.04-2.25,2.44-4.37,4.19-6.35c1.75-1.98,3.69-3.58,5.82-4.81c2.12-1.23,4.25-1.84,6.37-1.84c1.2,0,2.34,0.31,3.43,0.92
			c1.08,0.61,1.63,1.83,1.63,3.65c0,1.73-0.51,3.35-1.52,4.85c-1.02,1.5-2.38,2.85-4.09,4.03c-1.71,1.18-3.59,2.15-5.65,2.9
			c-2.06,0.75-4.12,1.24-6.2,1.47c-0.05,0.18-0.08,0.38-0.1,0.58c-0.02,0.2-0.03,0.54-0.03,0.99c0,0.23,0.03,0.63,0.1,1.19
			c0.07,0.57,0.27,1.17,0.59,1.81c0.32,0.64,0.85,1.18,1.59,1.64c0.74,0.46,1.75,0.68,3.05,0.68c1.94,0,3.89-0.53,5.85-1.6
			c1.96-1.07,3.81-2.49,5.54-4.27c1.73-1.77,3.18-3.75,4.33-5.94l1.39,1.09c-1.25,2.73-2.85,5.12-4.82,7.17
			c-1.96,2.05-4.13,3.64-6.51,4.78C215.85,103.21,213.41,103.78,210.92,103.78z M208.01,91.42c1.2-0.14,2.54-0.55,4.02-1.23
			c1.48-0.68,2.9-1.55,4.26-2.59c1.36-1.05,2.48-2.2,3.36-3.45c0.88-1.25,1.32-2.51,1.32-3.79c0-0.5-0.09-0.84-0.28-1.02
			c-0.19-0.18-0.49-0.27-0.9-0.27c-1.06,0-2.17,0.38-3.33,1.13c-1.16,0.75-2.29,1.73-3.4,2.94c-1.11,1.21-2.1,2.54-2.98,3.99
			C209.21,88.58,208.52,90.01,208.01,91.42z"/>
		<path d="M231.78,102.82c-1.57,0-2.85-0.72-3.85-2.15c-0.99-1.43-1.49-3.08-1.49-4.95c0-1.27,0.21-2.78,0.62-4.51
			c0.42-1.73,0.96-3.41,1.63-5.05c0.67-1.64,1.36-3,2.08-4.1c0.72-1.09,1.37-1.64,1.97-1.64c0.32,0,0.82,0.17,1.49,0.51
			c0.67,0.34,1.26,0.76,1.77,1.26c-0.51,0.73-1.12,1.84-1.84,3.34c-0.72,1.5-1.35,3.12-1.91,4.85c-0.55,1.73-0.83,3.3-0.83,4.71
			c0,0.18,0.03,0.61,0.1,1.3s0.24,1.32,0.52,1.91c0.28,0.59,0.76,0.89,1.46,0.89c0.79,0,1.63-0.42,2.53-1.26
			c0.9-0.84,1.82-1.93,2.77-3.28c0.95-1.34,1.87-2.79,2.77-4.34c0.9-1.55,1.71-3.05,2.42-4.51c0.72-1.46,1.3-2.69,1.77-3.69
			c0.42,0.05,0.96,0.16,1.63,0.34c0.67,0.18,1.26,0.42,1.77,0.72c0.51,0.3,0.76,0.72,0.76,1.26c0,0.14-0.22,0.69-0.66,1.67
			c-0.44,0.98-0.95,2.15-1.52,3.52c-0.58,1.37-1.09,2.77-1.52,4.2c-0.44,1.43-0.66,2.7-0.66,3.79c0,0.64,0.13,1.19,0.38,1.67
			c0.25,0.48,0.75,0.72,1.49,0.72c0.97,0,2.12-0.43,3.46-1.3c1.34-0.86,2.73-2.12,4.16-3.75c1.43-1.64,2.7-3.59,3.81-5.87l1.04,0.82
			c-1.02,2.46-2.33,4.67-3.95,6.62c-1.62,1.96-3.35,3.49-5.2,4.61c-1.85,1.12-3.65,1.67-5.4,1.67c-1.34,0-2.34-0.31-3.01-0.92
			c-0.67-0.61-1.12-1.41-1.35-2.39c-0.23-0.98-0.37-1.97-0.42-2.97c0-0.23,0-0.47,0-0.72c0-0.25,0-0.47,0-0.65
			c-0.79,1.23-1.64,2.42-2.56,3.58c-0.92,1.16-1.91,2.13-2.94,2.9C234.03,102.43,232.93,102.82,231.78,102.82z"/>
		<path d="M269.88,102.55c-1.71,0-3.1-0.45-4.16-1.33c-1.06-0.89-1.59-2.08-1.59-3.58c0-1.27,0.32-2.64,0.97-4.1
			c0.65-1.46,1.3-2.89,1.97-4.3c0.67-1.41,1-2.66,1-3.75c0-1.05-0.35-1.92-1.04-2.63c-0.69-0.71-1.5-1.29-2.42-1.74
			c-1.02,2.5-2.16,4.93-3.43,7.27c-1.27,2.34-2.3,4.18-3.08,5.5l-1.04-1.98c0.65-1.18,1.5-2.87,2.56-5.05s2.08-4.62,3.05-7.3
			c-0.46-0.45-0.69-1.07-0.69-1.84c0-1.18,0.37-2.3,1.11-3.35c0.74-1.05,1.46-1.57,2.15-1.57c0.55,0,0.96,0.31,1.21,0.92
			c0.25,0.61,0.38,1.04,0.38,1.26c0,0.23-0.1,0.64-0.31,1.23c-0.21,0.59-0.36,1.02-0.45,1.3c0.04,0.5,0.45,0.99,1.21,1.47
			c0.76,0.48,1.63,1.04,2.6,1.67c0.97,0.64,1.82,1.43,2.56,2.39c0.74,0.96,1.11,2.16,1.11,3.62c0,1.32-0.3,2.66-0.9,4.03
			c-0.6,1.37-1.2,2.64-1.8,3.82c-0.6,1.18-0.9,2.21-0.9,3.07c0,0.64,0.17,1.06,0.52,1.26c0.35,0.21,0.75,0.31,1.21,0.31
			c1.11,0,2.26-0.33,3.46-0.99c1.2-0.66,2.38-1.51,3.53-2.56c1.15-1.05,2.17-2.15,3.05-3.31c0.88-1.16,1.55-2.22,2.01-3.17
			l1.66,1.23c-0.88,1.96-2.15,3.88-3.81,5.77c-1.66,1.89-3.51,3.44-5.54,4.64C274.02,101.94,271.96,102.55,269.88,102.55z"/>
	</g>
</g>
<g>
	<g>
		<g>
			<path class="st0" d="M135.82,47.05c-1.76,6.65-0.04,14.03,5.18,19.25c5.38,5.38,13.05,7.04,19.86,5.01
				c1.76-6.65,0.04-14.03-5.18-19.25C150.31,46.68,142.63,45.02,135.82,47.05z"/>
		</g>
		<g>
			<path class="st1" d="M148.4,59.12c0.06,2.39,1.55,5.45,4.16,8.05c2.69,2.69,5.86,4.19,8.27,4.16c-0.06-2.39-1.55-5.45-4.16-8.05
				C153.99,60.59,150.82,59.09,148.4,59.12z"/>
		</g>
	</g>
	<g>
		<g>
			<path class="st0" d="M187.91,47.68c1.76,6.65,0.04,14.03-5.18,19.25c-5.38,5.38-13.05,7.04-19.86,5.01
				c-1.76-6.65-0.04-14.03,5.18-19.25C173.43,47.31,181.1,45.64,187.91,47.68z"/>
		</g>
		<g>
			<path class="st1" d="M175.34,59.75c-0.06,2.39-1.55,5.45-4.16,8.05c-2.69,2.69-5.86,4.19-8.27,4.16
				c0.06-2.39,1.55-5.45,4.16-8.05C169.75,61.22,172.92,59.72,175.34,59.75z"/>
		</g>
	</g>
	<g>
		<polygon points="160.37,82.55 162.87,58.05 165.37,82.55 160.37,82.55 		"/>
	</g>
	<g>
		<g>
			<path class="st0" d="M162.28,28.7c-3.31,3.11-5.54,8.9-5.54,15.53c0,6.84,2.37,12.78,5.85,15.82c3.31-3.11,5.54-8.9,5.54-15.53
				C168.13,37.68,165.76,31.74,162.28,28.7z"/>
		</g>
		<g>
			<path class="st1" d="M162.47,44.38c-0.92,1.56-1.54,4.45-1.54,7.77c0,3.42,0.66,6.39,1.62,7.91c0.92-1.56,1.54-4.45,1.54-7.77
				C164.09,48.86,163.44,45.89,162.47,44.38z"/>
		</g>
	</g>
</g>
</svg>
